<mxfile host="app.diagrams.net" agent="Mozilla/5.0 (Windows NT 10.0; Win64; x64) AppleWebKit/537.36 (KHTML, like Gecko) Chrome/135.0.0.0 Safari/537.36" version="26.2.14" pages="3">
  <diagram name="Use case" id="WB1zW19XkIAmQBtszDkw">
    <mxGraphModel dx="786" dy="451" grid="1" gridSize="10" guides="1" tooltips="1" connect="1" arrows="1" fold="1" page="1" pageScale="1" pageWidth="850" pageHeight="1100" math="0" shadow="0">
      <root>
        <mxCell id="0" />
        <mxCell id="1" parent="0" />
        <mxCell id="NNp83gyCvfF_hspas5BP-23" value="Ticket Booking System" style="shape=rect;html=1;verticalAlign=top;fontStyle=1;whiteSpace=wrap;align=center;" vertex="1" parent="1">
          <mxGeometry x="260" y="20" width="420" height="430" as="geometry" />
        </mxCell>
        <mxCell id="NNp83gyCvfF_hspas5BP-1" value="Passenger&lt;div&gt;(This is an actor&lt;span style=&quot;background-color: transparent; color: light-dark(rgb(0, 0, 0), rgb(255, 255, 255));&quot;&gt;)&lt;/span&gt;&lt;/div&gt;" style="shape=umlActor;verticalLabelPosition=bottom;verticalAlign=top;html=1;outlineConnect=0;fontStyle=1" vertex="1" parent="1">
          <mxGeometry x="171" y="201" width="30" height="59" as="geometry" />
        </mxCell>
        <mxCell id="NNp83gyCvfF_hspas5BP-2" value="Book Ticket&lt;div&gt;(This is a use case)&lt;/div&gt;" style="ellipse;whiteSpace=wrap;html=1;fontStyle=1" vertex="1" parent="1">
          <mxGeometry x="356" y="204" width="140" height="70" as="geometry" />
        </mxCell>
        <mxCell id="NNp83gyCvfF_hspas5BP-12" value="" style="endArrow=none;html=1;rounded=0;entryX=0;entryY=0.381;entryDx=0;entryDy=0;entryPerimeter=0;exitX=0.5;exitY=0.5;exitDx=0;exitDy=0;exitPerimeter=0;" edge="1" parent="1" source="NNp83gyCvfF_hspas5BP-1" target="NNp83gyCvfF_hspas5BP-2">
          <mxGeometry width="50" height="50" relative="1" as="geometry">
            <mxPoint x="201" y="240" as="sourcePoint" />
            <mxPoint x="301" y="230" as="targetPoint" />
          </mxGeometry>
        </mxCell>
        <mxCell id="NNp83gyCvfF_hspas5BP-13" value="View Travel Schedule" style="ellipse;whiteSpace=wrap;html=1;fontStyle=1" vertex="1" parent="1">
          <mxGeometry x="390" y="50" width="140" height="70" as="geometry" />
        </mxCell>
        <mxCell id="NNp83gyCvfF_hspas5BP-14" value="&amp;lt;&amp;lt;include&amp;gt;&amp;gt;" style="html=1;verticalAlign=bottom;labelBackgroundColor=none;endArrow=open;endFill=0;dashed=1;rounded=0;exitX=0.5;exitY=0;exitDx=0;exitDy=0;entryX=0.5;entryY=1;entryDx=0;entryDy=0;" edge="1" parent="1" source="NNp83gyCvfF_hspas5BP-2" target="NNp83gyCvfF_hspas5BP-13">
          <mxGeometry width="160" relative="1" as="geometry">
            <mxPoint x="330" y="240" as="sourcePoint" />
            <mxPoint x="490" y="240" as="targetPoint" />
          </mxGeometry>
        </mxCell>
        <mxCell id="NNp83gyCvfF_hspas5BP-15" value="Print Ticket" style="ellipse;whiteSpace=wrap;html=1;fontStyle=1" vertex="1" parent="1">
          <mxGeometry x="370" y="360" width="140" height="70" as="geometry" />
        </mxCell>
        <mxCell id="NNp83gyCvfF_hspas5BP-16" value="&amp;lt;&amp;lt;extend&amp;gt;&amp;gt;" style="html=1;verticalAlign=bottom;labelBackgroundColor=none;endArrow=open;endFill=0;dashed=1;rounded=0;exitX=0.5;exitY=0;exitDx=0;exitDy=0;entryX=0.586;entryY=0.981;entryDx=0;entryDy=0;entryPerimeter=0;" edge="1" parent="1" source="NNp83gyCvfF_hspas5BP-15" target="NNp83gyCvfF_hspas5BP-2">
          <mxGeometry width="160" relative="1" as="geometry">
            <mxPoint x="360" y="300" as="sourcePoint" />
            <mxPoint x="440" y="280" as="targetPoint" />
          </mxGeometry>
        </mxCell>
        <mxCell id="NNp83gyCvfF_hspas5BP-18" value="Admin" style="shape=umlActor;verticalLabelPosition=bottom;verticalAlign=top;html=1;outlineConnect=0;fontStyle=1" vertex="1" parent="1">
          <mxGeometry x="690" y="200" width="30" height="60" as="geometry" />
        </mxCell>
        <mxCell id="NNp83gyCvfF_hspas5BP-21" value="Use Case" style="ellipse;whiteSpace=wrap;html=1;fontStyle=1" vertex="1" parent="1">
          <mxGeometry x="520" y="290" width="140" height="70" as="geometry" />
        </mxCell>
        <mxCell id="NNp83gyCvfF_hspas5BP-22" value="" style="endArrow=none;html=1;rounded=0;entryX=0.5;entryY=0.5;entryDx=0;entryDy=0;entryPerimeter=0;exitX=0.776;exitY=0.067;exitDx=0;exitDy=0;exitPerimeter=0;" edge="1" parent="1" source="NNp83gyCvfF_hspas5BP-21" target="NNp83gyCvfF_hspas5BP-18">
          <mxGeometry width="50" height="50" relative="1" as="geometry">
            <mxPoint x="630" y="290" as="sourcePoint" />
            <mxPoint x="680" y="240" as="targetPoint" />
            <Array as="points" />
          </mxGeometry>
        </mxCell>
      </root>
    </mxGraphModel>
  </diagram>
  <diagram id="eFshBwIsF19Xx2YrlrYw" name="UML Class Diagram">
    <mxGraphModel dx="786" dy="451" grid="1" gridSize="10" guides="1" tooltips="1" connect="1" arrows="1" fold="1" page="1" pageScale="1" pageWidth="850" pageHeight="1100" math="0" shadow="0">
      <root>
        <mxCell id="0" />
        <mxCell id="1" parent="0" />
        <mxCell id="xAybCNFJGAE4QyZoRaNz-1" value="Product" style="swimlane;fontStyle=3;align=center;verticalAlign=top;childLayout=stackLayout;horizontal=1;startSize=26;horizontalStack=0;resizeParent=1;resizeParentMax=0;resizeLast=0;collapsible=1;marginBottom=0;whiteSpace=wrap;html=1;" parent="1" vertex="1">
          <mxGeometry x="130" y="100" width="260" height="112" as="geometry">
            <mxRectangle x="230" y="100" width="80" height="30" as="alternateBounds" />
          </mxGeometry>
        </mxCell>
        <mxCell id="xAybCNFJGAE4QyZoRaNz-23" value="+ name: string" style="text;strokeColor=none;fillColor=none;align=left;verticalAlign=top;spacingLeft=4;spacingRight=4;overflow=hidden;rotatable=0;points=[[0,0.5],[1,0.5]];portConstraint=eastwest;whiteSpace=wrap;html=1;fontFamily=Helvetica;fontSize=12;fontColor=default;fontStyle=0;" parent="xAybCNFJGAE4QyZoRaNz-1" vertex="1">
          <mxGeometry y="26" width="260" height="26" as="geometry" />
        </mxCell>
        <mxCell id="xAybCNFJGAE4QyZoRaNz-2" value="+ barcode: string" style="text;strokeColor=none;fillColor=none;align=left;verticalAlign=top;spacingLeft=4;spacingRight=4;overflow=hidden;rotatable=0;points=[[0,0.5],[1,0.5]];portConstraint=eastwest;whiteSpace=wrap;html=1;" parent="xAybCNFJGAE4QyZoRaNz-1" vertex="1">
          <mxGeometry y="52" width="260" height="26" as="geometry" />
        </mxCell>
        <mxCell id="xAybCNFJGAE4QyZoRaNz-3" value="" style="line;strokeWidth=1;fillColor=none;align=left;verticalAlign=middle;spacingTop=-1;spacingLeft=3;spacingRight=3;rotatable=0;labelPosition=right;points=[];portConstraint=eastwest;strokeColor=inherit;" parent="xAybCNFJGAE4QyZoRaNz-1" vertex="1">
          <mxGeometry y="78" width="260" height="8" as="geometry" />
        </mxCell>
        <mxCell id="xAybCNFJGAE4QyZoRaNz-4" value="+ createBarcode(string): string" style="text;strokeColor=none;fillColor=none;align=left;verticalAlign=top;spacingLeft=4;spacingRight=4;overflow=hidden;rotatable=0;points=[[0,0.5],[1,0.5]];portConstraint=eastwest;whiteSpace=wrap;html=1;" parent="xAybCNFJGAE4QyZoRaNz-1" vertex="1">
          <mxGeometry y="86" width="260" height="26" as="geometry" />
        </mxCell>
        <mxCell id="xAybCNFJGAE4QyZoRaNz-5" value="Electronic" style="swimlane;fontStyle=1;align=center;verticalAlign=top;childLayout=stackLayout;horizontal=1;startSize=26;horizontalStack=0;resizeParent=1;resizeParentMax=0;resizeLast=0;collapsible=1;marginBottom=0;whiteSpace=wrap;html=1;" parent="1" vertex="1">
          <mxGeometry x="70" y="346" width="160" height="86" as="geometry" />
        </mxCell>
        <mxCell id="xAybCNFJGAE4QyZoRaNz-6" value="+ field: type" style="text;strokeColor=none;fillColor=none;align=left;verticalAlign=top;spacingLeft=4;spacingRight=4;overflow=hidden;rotatable=0;points=[[0,0.5],[1,0.5]];portConstraint=eastwest;whiteSpace=wrap;html=1;" parent="xAybCNFJGAE4QyZoRaNz-5" vertex="1">
          <mxGeometry y="26" width="160" height="26" as="geometry" />
        </mxCell>
        <mxCell id="xAybCNFJGAE4QyZoRaNz-7" value="" style="line;strokeWidth=1;fillColor=none;align=left;verticalAlign=middle;spacingTop=-1;spacingLeft=3;spacingRight=3;rotatable=0;labelPosition=right;points=[];portConstraint=eastwest;strokeColor=inherit;" parent="xAybCNFJGAE4QyZoRaNz-5" vertex="1">
          <mxGeometry y="52" width="160" height="8" as="geometry" />
        </mxCell>
        <mxCell id="xAybCNFJGAE4QyZoRaNz-8" value="+ method(type): type" style="text;strokeColor=none;fillColor=none;align=left;verticalAlign=top;spacingLeft=4;spacingRight=4;overflow=hidden;rotatable=0;points=[[0,0.5],[1,0.5]];portConstraint=eastwest;whiteSpace=wrap;html=1;" parent="xAybCNFJGAE4QyZoRaNz-5" vertex="1">
          <mxGeometry y="60" width="160" height="26" as="geometry" />
        </mxCell>
        <mxCell id="xAybCNFJGAE4QyZoRaNz-9" value="Stationary" style="swimlane;fontStyle=1;align=center;verticalAlign=top;childLayout=stackLayout;horizontal=1;startSize=26;horizontalStack=0;resizeParent=1;resizeParentMax=0;resizeLast=0;collapsible=1;marginBottom=0;whiteSpace=wrap;html=1;" parent="1" vertex="1">
          <mxGeometry x="370" y="350" width="160" height="86" as="geometry" />
        </mxCell>
        <mxCell id="xAybCNFJGAE4QyZoRaNz-10" value="+ field: type" style="text;strokeColor=none;fillColor=none;align=left;verticalAlign=top;spacingLeft=4;spacingRight=4;overflow=hidden;rotatable=0;points=[[0,0.5],[1,0.5]];portConstraint=eastwest;whiteSpace=wrap;html=1;" parent="xAybCNFJGAE4QyZoRaNz-9" vertex="1">
          <mxGeometry y="26" width="160" height="26" as="geometry" />
        </mxCell>
        <mxCell id="xAybCNFJGAE4QyZoRaNz-11" value="" style="line;strokeWidth=1;fillColor=none;align=left;verticalAlign=middle;spacingTop=-1;spacingLeft=3;spacingRight=3;rotatable=0;labelPosition=right;points=[];portConstraint=eastwest;strokeColor=inherit;" parent="xAybCNFJGAE4QyZoRaNz-9" vertex="1">
          <mxGeometry y="52" width="160" height="8" as="geometry" />
        </mxCell>
        <mxCell id="xAybCNFJGAE4QyZoRaNz-12" value="+ method(type): type" style="text;strokeColor=none;fillColor=none;align=left;verticalAlign=top;spacingLeft=4;spacingRight=4;overflow=hidden;rotatable=0;points=[[0,0.5],[1,0.5]];portConstraint=eastwest;whiteSpace=wrap;html=1;" parent="xAybCNFJGAE4QyZoRaNz-9" vertex="1">
          <mxGeometry y="60" width="160" height="26" as="geometry" />
        </mxCell>
        <mxCell id="xAybCNFJGAE4QyZoRaNz-13" value="Extends" style="endArrow=block;endSize=16;endFill=0;html=1;rounded=0;exitX=0.5;exitY=0;exitDx=0;exitDy=0;entryX=0.421;entryY=1.154;entryDx=0;entryDy=0;entryPerimeter=0;" parent="1" source="xAybCNFJGAE4QyZoRaNz-5" target="xAybCNFJGAE4QyZoRaNz-4" edge="1">
          <mxGeometry width="160" relative="1" as="geometry">
            <mxPoint x="150" y="266.01" as="sourcePoint" />
            <mxPoint x="240" y="220" as="targetPoint" />
          </mxGeometry>
        </mxCell>
        <mxCell id="xAybCNFJGAE4QyZoRaNz-14" value="Extends" style="endArrow=block;endSize=16;endFill=0;html=1;rounded=0;entryX=0.558;entryY=1.128;entryDx=0;entryDy=0;entryPerimeter=0;exitX=0.2;exitY=-0.023;exitDx=0;exitDy=0;exitPerimeter=0;" parent="1" source="xAybCNFJGAE4QyZoRaNz-9" target="xAybCNFJGAE4QyZoRaNz-4" edge="1">
          <mxGeometry width="160" relative="1" as="geometry">
            <mxPoint x="479" y="246" as="sourcePoint" />
            <mxPoint x="320" y="186" as="targetPoint" />
          </mxGeometry>
        </mxCell>
        <mxCell id="xAybCNFJGAE4QyZoRaNz-15" value="BarcodeGenerator" style="swimlane;fontStyle=1;align=center;verticalAlign=top;childLayout=stackLayout;horizontal=1;startSize=26;horizontalStack=0;resizeParent=1;resizeParentMax=0;resizeLast=0;collapsible=1;marginBottom=0;whiteSpace=wrap;html=1;" parent="1" vertex="1">
          <mxGeometry x="520" y="100" width="160" height="86" as="geometry" />
        </mxCell>
        <mxCell id="xAybCNFJGAE4QyZoRaNz-16" value="+ field: type" style="text;strokeColor=none;fillColor=none;align=left;verticalAlign=top;spacingLeft=4;spacingRight=4;overflow=hidden;rotatable=0;points=[[0,0.5],[1,0.5]];portConstraint=eastwest;whiteSpace=wrap;html=1;" parent="xAybCNFJGAE4QyZoRaNz-15" vertex="1">
          <mxGeometry y="26" width="160" height="26" as="geometry" />
        </mxCell>
        <mxCell id="xAybCNFJGAE4QyZoRaNz-17" value="" style="line;strokeWidth=1;fillColor=none;align=left;verticalAlign=middle;spacingTop=-1;spacingLeft=3;spacingRight=3;rotatable=0;labelPosition=right;points=[];portConstraint=eastwest;strokeColor=inherit;" parent="xAybCNFJGAE4QyZoRaNz-15" vertex="1">
          <mxGeometry y="52" width="160" height="8" as="geometry" />
        </mxCell>
        <mxCell id="xAybCNFJGAE4QyZoRaNz-18" value="+ method(type): type" style="text;strokeColor=none;fillColor=none;align=left;verticalAlign=top;spacingLeft=4;spacingRight=4;overflow=hidden;rotatable=0;points=[[0,0.5],[1,0.5]];portConstraint=eastwest;whiteSpace=wrap;html=1;" parent="xAybCNFJGAE4QyZoRaNz-15" vertex="1">
          <mxGeometry y="60" width="160" height="26" as="geometry" />
        </mxCell>
        <mxCell id="xAybCNFJGAE4QyZoRaNz-19" value="Use" style="endArrow=open;endSize=12;dashed=1;html=1;rounded=0;entryX=0;entryY=0.5;entryDx=0;entryDy=0;" parent="1" target="xAybCNFJGAE4QyZoRaNz-24" edge="1">
          <mxGeometry width="160" relative="1" as="geometry">
            <mxPoint x="390" y="144.75" as="sourcePoint" />
            <mxPoint x="520" y="141.25" as="targetPoint" />
          </mxGeometry>
        </mxCell>
        <mxCell id="xAybCNFJGAE4QyZoRaNz-24" value="«interface»&lt;br&gt;&lt;b&gt;IBarcoeGenerator&lt;/b&gt;" style="html=1;whiteSpace=wrap;rounded=1;align=left;verticalAlign=top;spacingLeft=28;spacingRight=4;spacing=2;fontFamily=Helvetica;fontSize=12;fontColor=default;fontStyle=0;fillColor=none;" parent="1" vertex="1">
          <mxGeometry x="540" y="10" width="170" height="50" as="geometry" />
        </mxCell>
        <mxCell id="xAybCNFJGAE4QyZoRaNz-25" value="" style="endArrow=block;dashed=1;endFill=0;endSize=12;html=1;rounded=0;fontFamily=Helvetica;fontSize=12;fontColor=default;fontStyle=0;exitX=0.5;exitY=0;exitDx=0;exitDy=0;entryX=0.635;entryY=0.973;entryDx=0;entryDy=0;entryPerimeter=0;" parent="1" source="xAybCNFJGAE4QyZoRaNz-15" target="xAybCNFJGAE4QyZoRaNz-24" edge="1">
          <mxGeometry width="160" relative="1" as="geometry">
            <mxPoint x="580" y="90" as="sourcePoint" />
            <mxPoint x="740" y="90" as="targetPoint" />
          </mxGeometry>
        </mxCell>
        <mxCell id="xAybCNFJGAE4QyZoRaNz-39" value="Discount" style="swimlane;fontStyle=1;align=center;verticalAlign=top;childLayout=stackLayout;horizontal=1;startSize=26;horizontalStack=0;resizeParent=1;resizeParentMax=0;resizeLast=0;collapsible=1;marginBottom=0;whiteSpace=wrap;html=1;" parent="1" vertex="1">
          <mxGeometry x="590" y="250" width="160" height="86" as="geometry" />
        </mxCell>
        <mxCell id="xAybCNFJGAE4QyZoRaNz-40" value="+ field: type" style="text;strokeColor=none;fillColor=none;align=left;verticalAlign=top;spacingLeft=4;spacingRight=4;overflow=hidden;rotatable=0;points=[[0,0.5],[1,0.5]];portConstraint=eastwest;whiteSpace=wrap;html=1;" parent="xAybCNFJGAE4QyZoRaNz-39" vertex="1">
          <mxGeometry y="26" width="160" height="26" as="geometry" />
        </mxCell>
        <mxCell id="xAybCNFJGAE4QyZoRaNz-41" value="" style="line;strokeWidth=1;fillColor=none;align=left;verticalAlign=middle;spacingTop=-1;spacingLeft=3;spacingRight=3;rotatable=0;labelPosition=right;points=[];portConstraint=eastwest;strokeColor=inherit;" parent="xAybCNFJGAE4QyZoRaNz-39" vertex="1">
          <mxGeometry y="52" width="160" height="8" as="geometry" />
        </mxCell>
        <mxCell id="xAybCNFJGAE4QyZoRaNz-42" value="+ method(type): type" style="text;strokeColor=none;fillColor=none;align=left;verticalAlign=top;spacingLeft=4;spacingRight=4;overflow=hidden;rotatable=0;points=[[0,0.5],[1,0.5]];portConstraint=eastwest;whiteSpace=wrap;html=1;" parent="xAybCNFJGAE4QyZoRaNz-39" vertex="1">
          <mxGeometry y="60" width="160" height="26" as="geometry" />
        </mxCell>
        <mxCell id="xAybCNFJGAE4QyZoRaNz-43" value="" style="endArrow=diamondThin;endFill=1;endSize=24;html=1;rounded=0;fontFamily=Helvetica;fontSize=12;fontColor=default;fontStyle=0;exitX=0;exitY=0.5;exitDx=0;exitDy=0;entryX=1.008;entryY=-0.128;entryDx=0;entryDy=0;entryPerimeter=0;" parent="1" source="xAybCNFJGAE4QyZoRaNz-40" target="xAybCNFJGAE4QyZoRaNz-4" edge="1">
          <mxGeometry width="160" relative="1" as="geometry">
            <mxPoint x="580" y="289" as="sourcePoint" />
            <mxPoint x="490" y="140" as="targetPoint" />
          </mxGeometry>
        </mxCell>
        <mxCell id="xAybCNFJGAE4QyZoRaNz-44" value="" style="endArrow=diamondThin;endFill=0;endSize=24;html=1;rounded=0;fontFamily=Helvetica;fontSize=12;fontColor=default;fontStyle=0;" parent="1" edge="1">
          <mxGeometry width="160" relative="1" as="geometry">
            <mxPoint x="710" y="400" as="sourcePoint" />
            <mxPoint x="555" y="400" as="targetPoint" />
          </mxGeometry>
        </mxCell>
        <mxCell id="xAybCNFJGAE4QyZoRaNz-45" value="" style="endArrow=open;endFill=1;endSize=12;html=1;rounded=0;fontFamily=Helvetica;fontSize=12;fontColor=default;fontStyle=0;" parent="1" edge="1">
          <mxGeometry width="160" relative="1" as="geometry">
            <mxPoint x="560" y="432" as="sourcePoint" />
            <mxPoint x="710" y="432" as="targetPoint" />
          </mxGeometry>
        </mxCell>
      </root>
    </mxGraphModel>
  </diagram>
  <diagram id="LfIj1yiDiAA_1d07xEO7" name="Sequence Diagram">
    <mxGraphModel dx="1123" dy="644" grid="1" gridSize="10" guides="1" tooltips="1" connect="1" arrows="1" fold="1" page="1" pageScale="1" pageWidth="850" pageHeight="1100" math="0" shadow="0">
      <root>
        <mxCell id="0" />
        <mxCell id="1" parent="0" />
        <mxCell id="9nb-19x1gHZsP4e5sj1P-1" value="" style="html=1;points=[[0,0,0,0,5],[0,1,0,0,-5],[1,0,0,0,5],[1,1,0,0,-5]];perimeter=orthogonalPerimeter;outlineConnect=0;targetShapes=umlLifeline;portConstraint=eastwest;newEdgeStyle={&quot;curved&quot;:0,&quot;rounded&quot;:0};" vertex="1" parent="1">
          <mxGeometry x="180" y="170" width="10" height="220" as="geometry" />
        </mxCell>
        <mxCell id="iAM_qppFDEK0nCIGjeW2-1" value="Actor" style="shape=umlActor;verticalLabelPosition=bottom;verticalAlign=top;html=1;" vertex="1" parent="1">
          <mxGeometry x="170" y="50" width="30" height="60" as="geometry" />
        </mxCell>
        <mxCell id="iAM_qppFDEK0nCIGjeW2-2" value="" style="verticalLabelPosition=bottom;verticalAlign=top;html=1;shape=mxgraph.basic.rect;fillColor2=none;strokeWidth=1;size=20;indent=5;" vertex="1" parent="1">
          <mxGeometry x="280" y="70" width="130" height="50" as="geometry" />
        </mxCell>
        <mxCell id="iAM_qppFDEK0nCIGjeW2-3" value="Membership" style="text;html=1;align=center;verticalAlign=middle;whiteSpace=wrap;rounded=0;" vertex="1" parent="1">
          <mxGeometry x="311" y="80" width="75" height="30" as="geometry" />
        </mxCell>
        <mxCell id="iAM_qppFDEK0nCIGjeW2-4" value="" style="verticalLabelPosition=bottom;verticalAlign=top;html=1;shape=mxgraph.basic.rect;fillColor2=none;strokeWidth=1;size=20;indent=5;" vertex="1" parent="1">
          <mxGeometry x="510" y="70" width="130" height="50" as="geometry" />
        </mxCell>
        <mxCell id="iAM_qppFDEK0nCIGjeW2-5" value="DbContext" style="text;html=1;align=center;verticalAlign=middle;whiteSpace=wrap;rounded=0;" vertex="1" parent="1">
          <mxGeometry x="537.5" y="80" width="75" height="30" as="geometry" />
        </mxCell>
        <mxCell id="iAM_qppFDEK0nCIGjeW2-7" value="" style="html=1;points=[[0,0,0,0,5],[0,1,0,0,-5],[1,0,0,0,5],[1,1,0,0,-5]];perimeter=orthogonalPerimeter;outlineConnect=0;targetShapes=umlLifeline;portConstraint=eastwest;newEdgeStyle={&quot;curved&quot;:0,&quot;rounded&quot;:0};" vertex="1" parent="1">
          <mxGeometry x="320" y="170" width="10" height="220" as="geometry" />
        </mxCell>
        <mxCell id="iAM_qppFDEK0nCIGjeW2-8" value="" style="endArrow=none;dashed=1;html=1;dashPattern=1 3;strokeWidth=2;rounded=0;" edge="1" parent="1">
          <mxGeometry width="50" height="50" relative="1" as="geometry">
            <mxPoint x="185" y="170" as="sourcePoint" />
            <mxPoint x="185" y="130" as="targetPoint" />
          </mxGeometry>
        </mxCell>
        <mxCell id="iAM_qppFDEK0nCIGjeW2-9" value="" style="endArrow=none;dashed=1;html=1;dashPattern=1 3;strokeWidth=2;rounded=0;" edge="1" parent="1">
          <mxGeometry width="50" height="50" relative="1" as="geometry">
            <mxPoint x="185" y="410" as="sourcePoint" />
            <mxPoint x="184.5" y="390" as="targetPoint" />
          </mxGeometry>
        </mxCell>
        <mxCell id="iAM_qppFDEK0nCIGjeW2-11" value="" style="endArrow=none;dashed=1;html=1;dashPattern=1 3;strokeWidth=2;rounded=0;entryX=0.385;entryY=1;entryDx=0;entryDy=0;entryPerimeter=0;" edge="1" parent="1">
          <mxGeometry width="50" height="50" relative="1" as="geometry">
            <mxPoint x="326" y="170" as="sourcePoint" />
            <mxPoint x="326.04999999999995" y="120" as="targetPoint" />
          </mxGeometry>
        </mxCell>
        <mxCell id="iAM_qppFDEK0nCIGjeW2-12" value="" style="shape=umlDestroy;whiteSpace=wrap;html=1;strokeWidth=3;targetShapes=umlLifeline;" vertex="1" parent="1">
          <mxGeometry x="175" y="410" width="20" height="20" as="geometry" />
        </mxCell>
        <mxCell id="iAM_qppFDEK0nCIGjeW2-13" value="" style="endArrow=none;dashed=1;html=1;dashPattern=1 3;strokeWidth=2;rounded=0;" edge="1" parent="1">
          <mxGeometry width="50" height="50" relative="1" as="geometry">
            <mxPoint x="325" y="430" as="sourcePoint" />
            <mxPoint x="324.5" y="390" as="targetPoint" />
          </mxGeometry>
        </mxCell>
        <mxCell id="iAM_qppFDEK0nCIGjeW2-15" value="" style="shape=umlDestroy;whiteSpace=wrap;html=1;strokeWidth=3;targetShapes=umlLifeline;" vertex="1" parent="1">
          <mxGeometry x="320" y="440" width="10" height="10" as="geometry" />
        </mxCell>
        <mxCell id="iAM_qppFDEK0nCIGjeW2-16" value="" style="html=1;points=[[0,0,0,0,5],[0,1,0,0,-5],[1,0,0,0,5],[1,1,0,0,-5]];perimeter=orthogonalPerimeter;outlineConnect=0;targetShapes=umlLifeline;portConstraint=eastwest;newEdgeStyle={&quot;curved&quot;:0,&quot;rounded&quot;:0};" vertex="1" parent="1">
          <mxGeometry x="580" y="240" width="10" height="190" as="geometry" />
        </mxCell>
        <mxCell id="iAM_qppFDEK0nCIGjeW2-17" value="" style="endArrow=none;dashed=1;html=1;dashPattern=1 3;strokeWidth=2;rounded=0;" edge="1" parent="1">
          <mxGeometry width="50" height="50" relative="1" as="geometry">
            <mxPoint x="585" y="468" as="sourcePoint" />
            <mxPoint x="584.5" y="428" as="targetPoint" />
          </mxGeometry>
        </mxCell>
        <mxCell id="iAM_qppFDEK0nCIGjeW2-18" value="" style="shape=umlDestroy;whiteSpace=wrap;html=1;strokeWidth=3;targetShapes=umlLifeline;" vertex="1" parent="1">
          <mxGeometry x="580" y="476" width="10" height="10" as="geometry" />
        </mxCell>
        <mxCell id="iAM_qppFDEK0nCIGjeW2-19" value="" style="endArrow=none;dashed=1;html=1;dashPattern=1 3;strokeWidth=2;rounded=0;entryX=0.552;entryY=1.006;entryDx=0;entryDy=0;entryPerimeter=0;" edge="1" parent="1" target="iAM_qppFDEK0nCIGjeW2-4">
          <mxGeometry width="50" height="50" relative="1" as="geometry">
            <mxPoint x="582" y="230" as="sourcePoint" />
            <mxPoint x="584.29" y="160" as="targetPoint" />
          </mxGeometry>
        </mxCell>
        <mxCell id="iAM_qppFDEK0nCIGjeW2-21" value="Create account" style="html=1;verticalAlign=bottom;startArrow=oval;startFill=1;endArrow=block;startSize=8;curved=0;rounded=0;fontStyle=1;fontSize=15;" edge="1" parent="1" target="iAM_qppFDEK0nCIGjeW2-7">
          <mxGeometry width="60" relative="1" as="geometry">
            <mxPoint x="195" y="210" as="sourcePoint" />
            <mxPoint x="255" y="210" as="targetPoint" />
          </mxGeometry>
        </mxCell>
        <mxCell id="iAM_qppFDEK0nCIGjeW2-22" value="Insert Item" style="html=1;verticalAlign=bottom;startArrow=oval;startFill=1;endArrow=block;startSize=8;curved=0;rounded=0;fontStyle=1;fontSize=18;" edge="1" parent="1" target="iAM_qppFDEK0nCIGjeW2-16">
          <mxGeometry width="60" relative="1" as="geometry">
            <mxPoint x="330" y="270" as="sourcePoint" />
            <mxPoint x="390" y="270" as="targetPoint" />
          </mxGeometry>
        </mxCell>
        <mxCell id="iAM_qppFDEK0nCIGjeW2-23" value="return" style="html=1;verticalAlign=bottom;endArrow=open;dashed=1;endSize=8;curved=0;rounded=0;fontSize=23;fontStyle=1" edge="1" parent="1" target="iAM_qppFDEK0nCIGjeW2-7">
          <mxGeometry relative="1" as="geometry">
            <mxPoint x="580" y="380" as="sourcePoint" />
            <mxPoint x="500" y="380" as="targetPoint" />
          </mxGeometry>
        </mxCell>
        <mxCell id="iAM_qppFDEK0nCIGjeW2-24" value="return" style="html=1;verticalAlign=bottom;endArrow=open;dashed=1;endSize=8;curved=0;rounded=0;fontSize=21;fontStyle=1" edge="1" parent="1" target="9nb-19x1gHZsP4e5sj1P-1">
          <mxGeometry relative="1" as="geometry">
            <mxPoint x="320" y="380" as="sourcePoint" />
            <mxPoint x="240" y="380" as="targetPoint" />
          </mxGeometry>
        </mxCell>
      </root>
    </mxGraphModel>
  </diagram>
</mxfile>
